<mxfile host="app.diagrams.net" agent="Mozilla/5.0 (X11; Linux x86_64; rv:131.0) Gecko/20100101 Firefox/131.0" version="24.7.17" pages="5">
  <diagram id="mxUxgtX0UiQzWFNxFKl6" name="configuracao_inicial">
    <mxGraphModel dx="2380" dy="1380" grid="1" gridSize="10" guides="1" tooltips="1" connect="1" arrows="1" fold="1" page="1" pageScale="1" pageWidth="827" pageHeight="1169" math="0" shadow="0">
      <root>
        <mxCell id="0" />
        <mxCell id="1" parent="0" />
        <mxCell id="w_rZ-LdcRs8FSegtSAN_-1" value="" style="rounded=0;whiteSpace=wrap;html=1;fillStyle=solid;fillColor=#FFFFFF;" vertex="1" parent="1">
          <mxGeometry x="120" y="30" width="120" height="50" as="geometry" />
        </mxCell>
        <mxCell id="w_rZ-LdcRs8FSegtSAN_-2" value="0" style="rounded=0;whiteSpace=wrap;html=1;fontStyle=1;fontSize=16;labelBackgroundColor=none;fontColor=#FFFFFF;fillStyle=solid;fillColor=#333333;" vertex="1" parent="1">
          <mxGeometry x="120" width="120" height="30" as="geometry" />
        </mxCell>
        <mxCell id="w_rZ-LdcRs8FSegtSAN_-3" value="" style="rounded=0;whiteSpace=wrap;html=1;fillStyle=solid;fillColor=#FFFFFF;" vertex="1" parent="1">
          <mxGeometry x="240" y="30" width="120" height="50" as="geometry" />
        </mxCell>
        <mxCell id="w_rZ-LdcRs8FSegtSAN_-4" value="1" style="rounded=0;whiteSpace=wrap;html=1;fontStyle=1;fontSize=16;labelBackgroundColor=none;fontColor=#FFFFFF;fillStyle=solid;fillColor=#333333;" vertex="1" parent="1">
          <mxGeometry x="240" width="120" height="30" as="geometry" />
        </mxCell>
        <mxCell id="w_rZ-LdcRs8FSegtSAN_-5" value="" style="rounded=0;whiteSpace=wrap;html=1;fillStyle=solid;fillColor=#FFFFFF;" vertex="1" parent="1">
          <mxGeometry x="360" y="30" width="120" height="50" as="geometry" />
        </mxCell>
        <mxCell id="w_rZ-LdcRs8FSegtSAN_-6" value="2" style="rounded=0;whiteSpace=wrap;html=1;fontStyle=1;fontSize=16;labelBackgroundColor=none;fontColor=#FFFFFF;fillStyle=solid;fillColor=#333333;" vertex="1" parent="1">
          <mxGeometry x="360" width="120" height="30" as="geometry" />
        </mxCell>
        <mxCell id="w_rZ-LdcRs8FSegtSAN_-7" value="3" style="rounded=0;whiteSpace=wrap;html=1;fontStyle=1;fontSize=16;labelBackgroundColor=none;fontColor=#FFFFFF;fillStyle=solid;fillColor=#333333;" vertex="1" parent="1">
          <mxGeometry x="480" width="120" height="30" as="geometry" />
        </mxCell>
        <mxCell id="w_rZ-LdcRs8FSegtSAN_-8" value="4" style="rounded=0;whiteSpace=wrap;html=1;fontStyle=1;fontSize=16;labelBackgroundColor=none;fontColor=#FFFFFF;fillStyle=solid;fillColor=#333333;" vertex="1" parent="1">
          <mxGeometry x="600" width="120" height="30" as="geometry" />
        </mxCell>
        <mxCell id="w_rZ-LdcRs8FSegtSAN_-9" value="5" style="rounded=0;whiteSpace=wrap;html=1;fontStyle=1;fontSize=16;labelBackgroundColor=none;fontColor=#FFFFFF;fillStyle=solid;fillColor=#333333;" vertex="1" parent="1">
          <mxGeometry x="720" width="120" height="30" as="geometry" />
        </mxCell>
        <mxCell id="w_rZ-LdcRs8FSegtSAN_-10" value="6" style="rounded=0;whiteSpace=wrap;html=1;fontStyle=1;fontSize=16;labelBackgroundColor=none;fontColor=#FFFFFF;fillStyle=solid;fillColor=#333333;" vertex="1" parent="1">
          <mxGeometry x="840" width="120" height="30" as="geometry" />
        </mxCell>
        <mxCell id="w_rZ-LdcRs8FSegtSAN_-11" value="7" style="rounded=0;whiteSpace=wrap;html=1;fontStyle=1;fontSize=16;labelBackgroundColor=none;fontColor=#FFFFFF;fillStyle=solid;fillColor=#333333;" vertex="1" parent="1">
          <mxGeometry x="960" width="120" height="30" as="geometry" />
        </mxCell>
        <mxCell id="w_rZ-LdcRs8FSegtSAN_-12" value="8" style="rounded=0;whiteSpace=wrap;html=1;fillStyle=solid;fillColor=#333333;fontColor=#FFFFFF;fontSize=16;fontStyle=1" vertex="1" parent="1">
          <mxGeometry x="1080" width="120" height="30" as="geometry" />
        </mxCell>
        <mxCell id="w_rZ-LdcRs8FSegtSAN_-13" value="9" style="rounded=0;whiteSpace=wrap;html=1;fillStyle=solid;fillColor=#333333;fontColor=#FFFFFF;fontSize=16;fontStyle=1" vertex="1" parent="1">
          <mxGeometry x="1200" width="120" height="30" as="geometry" />
        </mxCell>
        <mxCell id="w_rZ-LdcRs8FSegtSAN_-14" value="10" style="rounded=0;whiteSpace=wrap;html=1;fillStyle=solid;fillColor=#333333;fontColor=#FFFFFF;fontSize=16;fontStyle=1" vertex="1" parent="1">
          <mxGeometry x="1320" width="120" height="30" as="geometry" />
        </mxCell>
        <mxCell id="w_rZ-LdcRs8FSegtSAN_-15" value="11" style="rounded=0;whiteSpace=wrap;html=1;fillStyle=solid;fillColor=#333333;fontColor=#FFFFFF;fontSize=16;fontStyle=1" vertex="1" parent="1">
          <mxGeometry x="1440" width="120" height="30" as="geometry" />
        </mxCell>
        <mxCell id="w_rZ-LdcRs8FSegtSAN_-16" value="12" style="rounded=0;whiteSpace=wrap;html=1;fillStyle=solid;fillColor=#333333;fontColor=#FFFFFF;fontSize=16;fontStyle=1" vertex="1" parent="1">
          <mxGeometry x="1560" width="120" height="30" as="geometry" />
        </mxCell>
        <mxCell id="w_rZ-LdcRs8FSegtSAN_-17" value="13" style="rounded=0;whiteSpace=wrap;html=1;fillStyle=solid;fillColor=#333333;fontColor=#FFFFFF;fontSize=16;fontStyle=1" vertex="1" parent="1">
          <mxGeometry x="1680" width="120" height="30" as="geometry" />
        </mxCell>
        <mxCell id="w_rZ-LdcRs8FSegtSAN_-18" value="14" style="rounded=0;whiteSpace=wrap;html=1;fillStyle=solid;fillColor=#333333;fontColor=#FFFFFF;fontSize=16;fontStyle=1" vertex="1" parent="1">
          <mxGeometry x="1800" width="120" height="30" as="geometry" />
        </mxCell>
        <mxCell id="w_rZ-LdcRs8FSegtSAN_-19" value="15" style="rounded=0;whiteSpace=wrap;html=1;fillStyle=solid;fillColor=#333333;fontColor=#FFFFFF;fontSize=16;fontStyle=1" vertex="1" parent="1">
          <mxGeometry x="1920" width="120" height="30" as="geometry" />
        </mxCell>
        <mxCell id="w_rZ-LdcRs8FSegtSAN_-20" value="&lt;div style=&quot;font-size: 16px;&quot;&gt;&lt;span style=&quot;font-size: 16px;&quot;&gt;&lt;font style=&quot;font-size: 16px;&quot;&gt;INVALID&lt;/font&gt;&lt;/span&gt;&lt;/div&gt;" style="rounded=0;whiteSpace=wrap;html=1;fontColor=#FF0000;fontStyle=1;fontSize=16;fillStyle=solid;fillColor=#FFFFFF;" vertex="1" parent="1">
          <mxGeometry y="30" width="120" height="50" as="geometry" />
        </mxCell>
        <mxCell id="w_rZ-LdcRs8FSegtSAN_-21" value="-1" style="rounded=0;whiteSpace=wrap;html=1;fontStyle=1;fontSize=16;labelBackgroundColor=none;fontColor=#FFFFFF;fillStyle=solid;fillColor=#333333;" vertex="1" parent="1">
          <mxGeometry width="120" height="30" as="geometry" />
        </mxCell>
        <mxCell id="w_rZ-LdcRs8FSegtSAN_-22" value="&lt;span style=&quot;font-size: 16px;&quot;&gt;INVALID&lt;/span&gt;" style="rounded=0;whiteSpace=wrap;html=1;fontColor=#FF0000;fontStyle=1;fontSize=16;fillStyle=solid;fillColor=#FFFFFF;" vertex="1" parent="1">
          <mxGeometry x="2040" y="30" width="120" height="50" as="geometry" />
        </mxCell>
        <mxCell id="w_rZ-LdcRs8FSegtSAN_-23" value="16" style="rounded=0;whiteSpace=wrap;html=1;fillStyle=solid;fillColor=#333333;fontColor=#FFFFFF;fontSize=16;fontStyle=1" vertex="1" parent="1">
          <mxGeometry x="2040" width="120" height="30" as="geometry" />
        </mxCell>
        <mxCell id="w_rZ-LdcRs8FSegtSAN_-24" value="" style="rounded=0;whiteSpace=wrap;html=1;fillStyle=solid;fillColor=#FFFFFF;" vertex="1" parent="1">
          <mxGeometry x="480" y="30" width="120" height="50" as="geometry" />
        </mxCell>
        <mxCell id="w_rZ-LdcRs8FSegtSAN_-25" value="" style="rounded=0;whiteSpace=wrap;html=1;fillStyle=solid;fillColor=#FFFFFF;" vertex="1" parent="1">
          <mxGeometry x="600" y="30" width="120" height="50" as="geometry" />
        </mxCell>
        <mxCell id="w_rZ-LdcRs8FSegtSAN_-26" value="" style="rounded=0;whiteSpace=wrap;html=1;fillStyle=solid;fillColor=#FFFFFF;" vertex="1" parent="1">
          <mxGeometry x="720" y="30" width="120" height="50" as="geometry" />
        </mxCell>
        <mxCell id="w_rZ-LdcRs8FSegtSAN_-27" value="" style="rounded=0;whiteSpace=wrap;fontSize=16;fontStyle=1;fillStyle=solid;fillColor=#FFFFFF;" vertex="1" parent="1">
          <mxGeometry x="840" y="30" width="120" height="50" as="geometry" />
        </mxCell>
        <mxCell id="w_rZ-LdcRs8FSegtSAN_-28" value="" style="rounded=0;whiteSpace=wrap;fontSize=16;fontStyle=1;fillStyle=solid;fillColor=#FFFFFF;" vertex="1" parent="1">
          <mxGeometry x="960" y="30" width="120" height="50" as="geometry" />
        </mxCell>
        <mxCell id="w_rZ-LdcRs8FSegtSAN_-29" value="" style="rounded=0;whiteSpace=wrap;fontSize=16;fontStyle=1;fillStyle=solid;fillColor=#FFFFFF;" vertex="1" parent="1">
          <mxGeometry x="1080" y="30" width="120" height="50" as="geometry" />
        </mxCell>
        <mxCell id="w_rZ-LdcRs8FSegtSAN_-30" value="" style="rounded=0;whiteSpace=wrap;fontSize=16;fontStyle=1;fillStyle=solid;fillColor=#FFFFFF;" vertex="1" parent="1">
          <mxGeometry x="1200" y="30" width="120" height="50" as="geometry" />
        </mxCell>
        <mxCell id="w_rZ-LdcRs8FSegtSAN_-31" value="&lt;div style=&quot;font-size: 16px;&quot;&gt;m_head&lt;/div&gt;" style="shape=flexArrow;endArrow=classic;html=1;rounded=0;fontSize=16;fontStyle=1;labelPosition=center;verticalLabelPosition=bottom;align=center;verticalAlign=top;horizontal=1;fillColor=#0000FF;labelBackgroundColor=none;" edge="1" parent="1">
          <mxGeometry x="-1" width="50" height="50" relative="1" as="geometry">
            <mxPoint x="1030" y="160" as="sourcePoint" />
            <mxPoint x="1030" y="90" as="targetPoint" />
            <mxPoint as="offset" />
          </mxGeometry>
        </mxCell>
        <mxCell id="w_rZ-LdcRs8FSegtSAN_-32" value="&lt;div&gt;m_tail&lt;/div&gt;" style="shape=flexArrow;endArrow=classic;html=1;rounded=0;fontSize=16;fontStyle=1;labelPosition=center;verticalLabelPosition=bottom;align=center;verticalAlign=top;horizontal=1;fillColor=#00CC00;labelBackgroundColor=none;" edge="1" parent="1">
          <mxGeometry x="-1" width="50" height="50" relative="1" as="geometry">
            <mxPoint x="1139.33" y="160" as="sourcePoint" />
            <mxPoint x="1139.33" y="90" as="targetPoint" />
            <mxPoint as="offset" />
          </mxGeometry>
        </mxCell>
        <mxCell id="w_rZ-LdcRs8FSegtSAN_-33" value="" style="rounded=0;whiteSpace=wrap;fontSize=16;fontStyle=1;fillStyle=solid;fillColor=#FFFFFF;" vertex="1" parent="1">
          <mxGeometry x="1320" y="30" width="120" height="50" as="geometry" />
        </mxCell>
        <mxCell id="w_rZ-LdcRs8FSegtSAN_-34" value="" style="rounded=0;whiteSpace=wrap;fontSize=16;fontStyle=1;fillStyle=solid;fillColor=#FFFFFF;" vertex="1" parent="1">
          <mxGeometry x="1440" y="30" width="120" height="50" as="geometry" />
        </mxCell>
        <mxCell id="w_rZ-LdcRs8FSegtSAN_-35" value="" style="rounded=0;whiteSpace=wrap;fontSize=16;fontStyle=1;fillStyle=solid;fillColor=#FFFFFF;" vertex="1" parent="1">
          <mxGeometry x="1560" y="30" width="120" height="50" as="geometry" />
        </mxCell>
        <mxCell id="w_rZ-LdcRs8FSegtSAN_-36" value="" style="rounded=0;whiteSpace=wrap;fontSize=16;fontStyle=1;fillStyle=solid;fillColor=#FFFFFF;" vertex="1" parent="1">
          <mxGeometry x="1680" y="30" width="120" height="50" as="geometry" />
        </mxCell>
        <mxCell id="w_rZ-LdcRs8FSegtSAN_-37" value="" style="rounded=0;whiteSpace=wrap;fontSize=16;fontStyle=1;fillStyle=solid;fillColor=#FFFFFF;" vertex="1" parent="1">
          <mxGeometry x="1800" y="30" width="120" height="50" as="geometry" />
        </mxCell>
        <mxCell id="w_rZ-LdcRs8FSegtSAN_-38" value="" style="rounded=0;whiteSpace=wrap;fontStyle=1;fontSize=16;fillStyle=solid;fillColor=#FFFFFF;" vertex="1" parent="1">
          <mxGeometry x="1920" y="30" width="120" height="50" as="geometry" />
        </mxCell>
      </root>
    </mxGraphModel>
  </diagram>
  <diagram name="primeiras_insercoes" id="q-jAV07doyxohkLEVW6u">
    <mxGraphModel dx="926" dy="537" grid="1" gridSize="10" guides="1" tooltips="1" connect="1" arrows="1" fold="1" page="1" pageScale="1" pageWidth="827" pageHeight="1169" math="0" shadow="0">
      <root>
        <mxCell id="18sTlTDOKUyRu1Fr48_z-0" />
        <mxCell id="18sTlTDOKUyRu1Fr48_z-1" parent="18sTlTDOKUyRu1Fr48_z-0" />
        <mxCell id="18sTlTDOKUyRu1Fr48_z-2" value="" style="rounded=0;whiteSpace=wrap;html=1;fillStyle=solid;fillColor=#FFFFFF;" vertex="1" parent="18sTlTDOKUyRu1Fr48_z-1">
          <mxGeometry x="120" y="30" width="120" height="50" as="geometry" />
        </mxCell>
        <mxCell id="18sTlTDOKUyRu1Fr48_z-3" value="0" style="rounded=0;whiteSpace=wrap;html=1;fontStyle=1;fontSize=16;labelBackgroundColor=none;fontColor=#FFFFFF;fillStyle=solid;fillColor=#333333;" vertex="1" parent="18sTlTDOKUyRu1Fr48_z-1">
          <mxGeometry x="120" width="120" height="30" as="geometry" />
        </mxCell>
        <mxCell id="18sTlTDOKUyRu1Fr48_z-4" value="" style="rounded=0;whiteSpace=wrap;html=1;fillStyle=solid;fillColor=#FFFFFF;" vertex="1" parent="18sTlTDOKUyRu1Fr48_z-1">
          <mxGeometry x="240" y="30" width="120" height="50" as="geometry" />
        </mxCell>
        <mxCell id="18sTlTDOKUyRu1Fr48_z-5" value="1" style="rounded=0;whiteSpace=wrap;html=1;fontStyle=1;fontSize=16;labelBackgroundColor=none;fontColor=#FFFFFF;fillStyle=solid;fillColor=#333333;" vertex="1" parent="18sTlTDOKUyRu1Fr48_z-1">
          <mxGeometry x="240" width="120" height="30" as="geometry" />
        </mxCell>
        <mxCell id="18sTlTDOKUyRu1Fr48_z-6" value="" style="rounded=0;whiteSpace=wrap;html=1;fillStyle=solid;fillColor=#FFFFFF;" vertex="1" parent="18sTlTDOKUyRu1Fr48_z-1">
          <mxGeometry x="360" y="30" width="120" height="50" as="geometry" />
        </mxCell>
        <mxCell id="18sTlTDOKUyRu1Fr48_z-7" value="2" style="rounded=0;whiteSpace=wrap;html=1;fontStyle=1;fontSize=16;labelBackgroundColor=none;fontColor=#FFFFFF;fillStyle=solid;fillColor=#333333;" vertex="1" parent="18sTlTDOKUyRu1Fr48_z-1">
          <mxGeometry x="360" width="120" height="30" as="geometry" />
        </mxCell>
        <mxCell id="18sTlTDOKUyRu1Fr48_z-8" value="3" style="rounded=0;whiteSpace=wrap;html=1;fontStyle=1;fontSize=16;labelBackgroundColor=none;fontColor=#FFFFFF;fillStyle=solid;fillColor=#333333;" vertex="1" parent="18sTlTDOKUyRu1Fr48_z-1">
          <mxGeometry x="480" width="120" height="30" as="geometry" />
        </mxCell>
        <mxCell id="18sTlTDOKUyRu1Fr48_z-9" value="4" style="rounded=0;whiteSpace=wrap;html=1;fontStyle=1;fontSize=16;labelBackgroundColor=none;fontColor=#FFFFFF;fillStyle=solid;fillColor=#333333;" vertex="1" parent="18sTlTDOKUyRu1Fr48_z-1">
          <mxGeometry x="600" width="120" height="30" as="geometry" />
        </mxCell>
        <mxCell id="18sTlTDOKUyRu1Fr48_z-10" value="5" style="rounded=0;whiteSpace=wrap;html=1;fontStyle=1;fontSize=16;labelBackgroundColor=none;fontColor=#FFFFFF;fillStyle=solid;fillColor=#333333;" vertex="1" parent="18sTlTDOKUyRu1Fr48_z-1">
          <mxGeometry x="720" width="120" height="30" as="geometry" />
        </mxCell>
        <mxCell id="18sTlTDOKUyRu1Fr48_z-11" value="6" style="rounded=0;whiteSpace=wrap;html=1;fontStyle=1;fontSize=16;labelBackgroundColor=none;fontColor=#FFFFFF;fillStyle=solid;fillColor=#333333;" vertex="1" parent="18sTlTDOKUyRu1Fr48_z-1">
          <mxGeometry x="840" width="120" height="30" as="geometry" />
        </mxCell>
        <mxCell id="18sTlTDOKUyRu1Fr48_z-12" value="7" style="rounded=0;whiteSpace=wrap;html=1;fontStyle=1;fontSize=16;labelBackgroundColor=none;fontColor=#FFFFFF;fillStyle=solid;fillColor=#333333;" vertex="1" parent="18sTlTDOKUyRu1Fr48_z-1">
          <mxGeometry x="960" width="120" height="30" as="geometry" />
        </mxCell>
        <mxCell id="18sTlTDOKUyRu1Fr48_z-13" value="8" style="rounded=0;whiteSpace=wrap;html=1;fillStyle=solid;fillColor=#333333;fontColor=#FFFFFF;fontSize=16;fontStyle=1" vertex="1" parent="18sTlTDOKUyRu1Fr48_z-1">
          <mxGeometry x="1080" width="120" height="30" as="geometry" />
        </mxCell>
        <mxCell id="18sTlTDOKUyRu1Fr48_z-14" value="9" style="rounded=0;whiteSpace=wrap;html=1;fillStyle=solid;fillColor=#333333;fontColor=#FFFFFF;fontSize=16;fontStyle=1" vertex="1" parent="18sTlTDOKUyRu1Fr48_z-1">
          <mxGeometry x="1200" width="120" height="30" as="geometry" />
        </mxCell>
        <mxCell id="18sTlTDOKUyRu1Fr48_z-15" value="10" style="rounded=0;whiteSpace=wrap;html=1;fillStyle=solid;fillColor=#333333;fontColor=#FFFFFF;fontSize=16;fontStyle=1" vertex="1" parent="18sTlTDOKUyRu1Fr48_z-1">
          <mxGeometry x="1320" width="120" height="30" as="geometry" />
        </mxCell>
        <mxCell id="18sTlTDOKUyRu1Fr48_z-16" value="11" style="rounded=0;whiteSpace=wrap;html=1;fillStyle=solid;fillColor=#333333;fontColor=#FFFFFF;fontSize=16;fontStyle=1" vertex="1" parent="18sTlTDOKUyRu1Fr48_z-1">
          <mxGeometry x="1440" width="120" height="30" as="geometry" />
        </mxCell>
        <mxCell id="18sTlTDOKUyRu1Fr48_z-17" value="12" style="rounded=0;whiteSpace=wrap;html=1;fillStyle=solid;fillColor=#333333;fontColor=#FFFFFF;fontSize=16;fontStyle=1" vertex="1" parent="18sTlTDOKUyRu1Fr48_z-1">
          <mxGeometry x="1560" width="120" height="30" as="geometry" />
        </mxCell>
        <mxCell id="18sTlTDOKUyRu1Fr48_z-18" value="13" style="rounded=0;whiteSpace=wrap;html=1;fillStyle=solid;fillColor=#333333;fontColor=#FFFFFF;fontSize=16;fontStyle=1" vertex="1" parent="18sTlTDOKUyRu1Fr48_z-1">
          <mxGeometry x="1680" width="120" height="30" as="geometry" />
        </mxCell>
        <mxCell id="18sTlTDOKUyRu1Fr48_z-19" value="14" style="rounded=0;whiteSpace=wrap;html=1;fillStyle=solid;fillColor=#333333;fontColor=#FFFFFF;fontSize=16;fontStyle=1" vertex="1" parent="18sTlTDOKUyRu1Fr48_z-1">
          <mxGeometry x="1800" width="120" height="30" as="geometry" />
        </mxCell>
        <mxCell id="18sTlTDOKUyRu1Fr48_z-20" value="15" style="rounded=0;whiteSpace=wrap;html=1;fillStyle=solid;fillColor=#333333;fontColor=#FFFFFF;fontSize=16;fontStyle=1" vertex="1" parent="18sTlTDOKUyRu1Fr48_z-1">
          <mxGeometry x="1920" width="120" height="30" as="geometry" />
        </mxCell>
        <mxCell id="18sTlTDOKUyRu1Fr48_z-21" value="&lt;div style=&quot;font-size: 16px;&quot;&gt;&lt;span style=&quot;font-size: 16px;&quot;&gt;&lt;font style=&quot;font-size: 16px;&quot;&gt;INVALID&lt;/font&gt;&lt;/span&gt;&lt;/div&gt;" style="rounded=0;whiteSpace=wrap;html=1;fontColor=#FF0000;fontStyle=1;fontSize=16;fillStyle=solid;fillColor=#FFFFFF;" vertex="1" parent="18sTlTDOKUyRu1Fr48_z-1">
          <mxGeometry y="30" width="120" height="50" as="geometry" />
        </mxCell>
        <mxCell id="18sTlTDOKUyRu1Fr48_z-22" value="-1" style="rounded=0;whiteSpace=wrap;html=1;fontStyle=1;fontSize=16;labelBackgroundColor=none;fontColor=#FFFFFF;fillStyle=solid;fillColor=#333333;" vertex="1" parent="18sTlTDOKUyRu1Fr48_z-1">
          <mxGeometry width="120" height="30" as="geometry" />
        </mxCell>
        <mxCell id="18sTlTDOKUyRu1Fr48_z-23" value="&lt;span style=&quot;font-size: 16px;&quot;&gt;INVALID&lt;/span&gt;" style="rounded=0;whiteSpace=wrap;html=1;fontColor=#FF0000;fontStyle=1;fontSize=16;fillStyle=solid;fillColor=#FFFFFF;" vertex="1" parent="18sTlTDOKUyRu1Fr48_z-1">
          <mxGeometry x="2040" y="30" width="120" height="50" as="geometry" />
        </mxCell>
        <mxCell id="18sTlTDOKUyRu1Fr48_z-24" value="16" style="rounded=0;whiteSpace=wrap;html=1;fillStyle=solid;fillColor=#333333;fontColor=#FFFFFF;fontSize=16;fontStyle=1" vertex="1" parent="18sTlTDOKUyRu1Fr48_z-1">
          <mxGeometry x="2040" width="120" height="30" as="geometry" />
        </mxCell>
        <mxCell id="18sTlTDOKUyRu1Fr48_z-25" value="" style="rounded=0;whiteSpace=wrap;html=1;fillStyle=solid;fillColor=#FFFFFF;" vertex="1" parent="18sTlTDOKUyRu1Fr48_z-1">
          <mxGeometry x="480" y="30" width="120" height="50" as="geometry" />
        </mxCell>
        <mxCell id="18sTlTDOKUyRu1Fr48_z-26" value="" style="rounded=0;whiteSpace=wrap;html=1;fillStyle=solid;fillColor=#FFFFFF;" vertex="1" parent="18sTlTDOKUyRu1Fr48_z-1">
          <mxGeometry x="600" y="30" width="120" height="50" as="geometry" />
        </mxCell>
        <mxCell id="18sTlTDOKUyRu1Fr48_z-27" value="" style="rounded=0;whiteSpace=wrap;html=1;fillStyle=solid;fillColor=#FFFFFF;" vertex="1" parent="18sTlTDOKUyRu1Fr48_z-1">
          <mxGeometry x="720" y="30" width="120" height="50" as="geometry" />
        </mxCell>
        <mxCell id="18sTlTDOKUyRu1Fr48_z-28" value="" style="rounded=0;whiteSpace=wrap;fontSize=16;fontStyle=1;fillStyle=solid;fillColor=#FFFFFF;" vertex="1" parent="18sTlTDOKUyRu1Fr48_z-1">
          <mxGeometry x="840" y="30" width="120" height="50" as="geometry" />
        </mxCell>
        <mxCell id="18sTlTDOKUyRu1Fr48_z-29" value="55" style="rounded=0;whiteSpace=wrap;fontSize=16;fontStyle=1;fillStyle=solid;fillColor=#FFFFFF;" vertex="1" parent="18sTlTDOKUyRu1Fr48_z-1">
          <mxGeometry x="960" y="30" width="120" height="50" as="geometry" />
        </mxCell>
        <mxCell id="18sTlTDOKUyRu1Fr48_z-30" value="78" style="rounded=0;whiteSpace=wrap;fontSize=16;fontStyle=1;fillStyle=solid;fillColor=#FFFFFF;" vertex="1" parent="18sTlTDOKUyRu1Fr48_z-1">
          <mxGeometry x="1080" y="30" width="120" height="50" as="geometry" />
        </mxCell>
        <mxCell id="18sTlTDOKUyRu1Fr48_z-31" value="93" style="rounded=0;whiteSpace=wrap;fontSize=16;fontStyle=1;fillStyle=solid;fillColor=#FFFFFF;" vertex="1" parent="18sTlTDOKUyRu1Fr48_z-1">
          <mxGeometry x="1200" y="30" width="120" height="50" as="geometry" />
        </mxCell>
        <mxCell id="18sTlTDOKUyRu1Fr48_z-32" value="&lt;div style=&quot;font-size: 16px;&quot;&gt;m_head&lt;/div&gt;" style="shape=flexArrow;endArrow=classic;html=1;rounded=0;fontSize=16;fontStyle=1;labelPosition=center;verticalLabelPosition=bottom;align=center;verticalAlign=top;horizontal=1;fillColor=#0000FF;labelBackgroundColor=none;" edge="1" parent="18sTlTDOKUyRu1Fr48_z-1">
          <mxGeometry x="-1" width="50" height="50" relative="1" as="geometry">
            <mxPoint x="899.29" y="160" as="sourcePoint" />
            <mxPoint x="899.29" y="90" as="targetPoint" />
            <mxPoint as="offset" />
          </mxGeometry>
        </mxCell>
        <mxCell id="18sTlTDOKUyRu1Fr48_z-33" value="&lt;div&gt;m_tail&lt;/div&gt;" style="shape=flexArrow;endArrow=classic;html=1;rounded=0;fontSize=16;fontStyle=1;labelPosition=center;verticalLabelPosition=bottom;align=center;verticalAlign=top;horizontal=1;fillColor=#00CC00;labelBackgroundColor=none;" edge="1" parent="18sTlTDOKUyRu1Fr48_z-1">
          <mxGeometry x="-1" width="50" height="50" relative="1" as="geometry">
            <mxPoint x="1499.29" y="160" as="sourcePoint" />
            <mxPoint x="1499.29" y="90" as="targetPoint" />
            <mxPoint as="offset" />
          </mxGeometry>
        </mxCell>
        <mxCell id="18sTlTDOKUyRu1Fr48_z-34" value="20" style="rounded=0;whiteSpace=wrap;fontSize=16;fontStyle=1;fillStyle=solid;fillColor=#FFFFFF;" vertex="1" parent="18sTlTDOKUyRu1Fr48_z-1">
          <mxGeometry x="1320" y="30" width="120" height="50" as="geometry" />
        </mxCell>
        <mxCell id="18sTlTDOKUyRu1Fr48_z-35" value="" style="rounded=0;whiteSpace=wrap;fontSize=16;fontStyle=1;fillStyle=solid;fillColor=#FFFFFF;" vertex="1" parent="18sTlTDOKUyRu1Fr48_z-1">
          <mxGeometry x="1440" y="30" width="120" height="50" as="geometry" />
        </mxCell>
        <mxCell id="18sTlTDOKUyRu1Fr48_z-36" value="" style="rounded=0;whiteSpace=wrap;fontSize=16;fontStyle=1;fillStyle=solid;fillColor=#FFFFFF;" vertex="1" parent="18sTlTDOKUyRu1Fr48_z-1">
          <mxGeometry x="1560" y="30" width="120" height="50" as="geometry" />
        </mxCell>
        <mxCell id="18sTlTDOKUyRu1Fr48_z-37" value="" style="rounded=0;whiteSpace=wrap;fontSize=16;fontStyle=1;fillStyle=solid;fillColor=#FFFFFF;" vertex="1" parent="18sTlTDOKUyRu1Fr48_z-1">
          <mxGeometry x="1680" y="30" width="120" height="50" as="geometry" />
        </mxCell>
        <mxCell id="18sTlTDOKUyRu1Fr48_z-38" value="" style="rounded=0;whiteSpace=wrap;fontSize=16;fontStyle=1;fillStyle=solid;fillColor=#FFFFFF;" vertex="1" parent="18sTlTDOKUyRu1Fr48_z-1">
          <mxGeometry x="1800" y="30" width="120" height="50" as="geometry" />
        </mxCell>
        <mxCell id="18sTlTDOKUyRu1Fr48_z-39" value="" style="rounded=0;whiteSpace=wrap;fontStyle=1;fontSize=16;fillStyle=solid;fillColor=#FFFFFF;" vertex="1" parent="18sTlTDOKUyRu1Fr48_z-1">
          <mxGeometry x="1920" y="30" width="120" height="50" as="geometry" />
        </mxCell>
      </root>
    </mxGraphModel>
  </diagram>
  <diagram name="full_tail" id="tS8w8Ug8wFAdmPW5-SAF">
    <mxGraphModel dx="3332" dy="1932" grid="1" gridSize="10" guides="1" tooltips="1" connect="1" arrows="1" fold="1" page="1" pageScale="1" pageWidth="827" pageHeight="1169" math="0" shadow="0">
      <root>
        <mxCell id="0" />
        <mxCell id="1" parent="0" />
        <mxCell id="O7nyrzu7f34UhMlNXBu_-23" value="" style="rounded=0;whiteSpace=wrap;html=1;fillStyle=solid;fillColor=#FFFFFF;" vertex="1" parent="1">
          <mxGeometry x="120" y="110" width="120" height="50" as="geometry" />
        </mxCell>
        <mxCell id="O7nyrzu7f34UhMlNXBu_-24" value="0" style="rounded=0;whiteSpace=wrap;html=1;fontStyle=1;fontSize=16;labelBackgroundColor=none;fontColor=#FFFFFF;fillStyle=solid;fillColor=#333333;" vertex="1" parent="1">
          <mxGeometry x="120" y="80" width="120" height="30" as="geometry" />
        </mxCell>
        <mxCell id="O7nyrzu7f34UhMlNXBu_-83" value="" style="rounded=0;whiteSpace=wrap;html=1;fillStyle=solid;fillColor=#FFFFFF;" vertex="1" parent="1">
          <mxGeometry x="240" y="110" width="120" height="50" as="geometry" />
        </mxCell>
        <mxCell id="O7nyrzu7f34UhMlNXBu_-84" value="1" style="rounded=0;whiteSpace=wrap;html=1;fontStyle=1;fontSize=16;labelBackgroundColor=none;fontColor=#FFFFFF;fillStyle=solid;fillColor=#333333;" vertex="1" parent="1">
          <mxGeometry x="240" y="80" width="120" height="30" as="geometry" />
        </mxCell>
        <mxCell id="O7nyrzu7f34UhMlNXBu_-85" value="" style="rounded=0;whiteSpace=wrap;html=1;fillStyle=solid;fillColor=#FFFFFF;" vertex="1" parent="1">
          <mxGeometry x="360" y="110" width="120" height="50" as="geometry" />
        </mxCell>
        <mxCell id="O7nyrzu7f34UhMlNXBu_-86" value="2" style="rounded=0;whiteSpace=wrap;html=1;fontStyle=1;fontSize=16;labelBackgroundColor=none;fontColor=#FFFFFF;fillStyle=solid;fillColor=#333333;" vertex="1" parent="1">
          <mxGeometry x="360" y="80" width="120" height="30" as="geometry" />
        </mxCell>
        <mxCell id="O7nyrzu7f34UhMlNXBu_-88" value="3" style="rounded=0;whiteSpace=wrap;html=1;fontStyle=1;fontSize=16;labelBackgroundColor=none;fontColor=#FFFFFF;fillStyle=solid;fillColor=#333333;" vertex="1" parent="1">
          <mxGeometry x="480" y="80" width="120" height="30" as="geometry" />
        </mxCell>
        <mxCell id="O7nyrzu7f34UhMlNXBu_-90" value="4" style="rounded=0;whiteSpace=wrap;html=1;fontStyle=1;fontSize=16;labelBackgroundColor=none;fontColor=#FFFFFF;fillStyle=solid;fillColor=#333333;" vertex="1" parent="1">
          <mxGeometry x="600" y="80" width="120" height="30" as="geometry" />
        </mxCell>
        <mxCell id="O7nyrzu7f34UhMlNXBu_-92" value="5" style="rounded=0;whiteSpace=wrap;html=1;fontStyle=1;fontSize=16;labelBackgroundColor=none;fontColor=#FFFFFF;fillStyle=solid;fillColor=#333333;" vertex="1" parent="1">
          <mxGeometry x="720" y="80" width="120" height="30" as="geometry" />
        </mxCell>
        <mxCell id="O7nyrzu7f34UhMlNXBu_-94" value="6" style="rounded=0;whiteSpace=wrap;html=1;fontStyle=1;fontSize=16;labelBackgroundColor=none;fontColor=#FFFFFF;fillStyle=solid;fillColor=#333333;" vertex="1" parent="1">
          <mxGeometry x="840" y="80" width="120" height="30" as="geometry" />
        </mxCell>
        <mxCell id="O7nyrzu7f34UhMlNXBu_-96" value="7" style="rounded=0;whiteSpace=wrap;html=1;fontStyle=1;fontSize=16;labelBackgroundColor=none;fontColor=#FFFFFF;fillStyle=solid;fillColor=#333333;" vertex="1" parent="1">
          <mxGeometry x="960" y="80" width="120" height="30" as="geometry" />
        </mxCell>
        <mxCell id="O7nyrzu7f34UhMlNXBu_-98" value="8" style="rounded=0;whiteSpace=wrap;html=1;fillStyle=solid;fillColor=#333333;fontColor=#FFFFFF;fontSize=16;fontStyle=1" vertex="1" parent="1">
          <mxGeometry x="1080" y="80" width="120" height="30" as="geometry" />
        </mxCell>
        <mxCell id="O7nyrzu7f34UhMlNXBu_-100" value="9" style="rounded=0;whiteSpace=wrap;html=1;fillStyle=solid;fillColor=#333333;fontColor=#FFFFFF;fontSize=16;fontStyle=1" vertex="1" parent="1">
          <mxGeometry x="1200" y="80" width="120" height="30" as="geometry" />
        </mxCell>
        <mxCell id="O7nyrzu7f34UhMlNXBu_-102" value="10" style="rounded=0;whiteSpace=wrap;html=1;fillStyle=solid;fillColor=#333333;fontColor=#FFFFFF;fontSize=16;fontStyle=1" vertex="1" parent="1">
          <mxGeometry x="1320" y="80" width="120" height="30" as="geometry" />
        </mxCell>
        <mxCell id="O7nyrzu7f34UhMlNXBu_-104" value="11" style="rounded=0;whiteSpace=wrap;html=1;fillStyle=solid;fillColor=#333333;fontColor=#FFFFFF;fontSize=16;fontStyle=1" vertex="1" parent="1">
          <mxGeometry x="1440" y="80" width="120" height="30" as="geometry" />
        </mxCell>
        <mxCell id="O7nyrzu7f34UhMlNXBu_-106" value="12" style="rounded=0;whiteSpace=wrap;html=1;fillStyle=solid;fillColor=#333333;fontColor=#FFFFFF;fontSize=16;fontStyle=1" vertex="1" parent="1">
          <mxGeometry x="1560" y="80" width="120" height="30" as="geometry" />
        </mxCell>
        <mxCell id="O7nyrzu7f34UhMlNXBu_-108" value="13" style="rounded=0;whiteSpace=wrap;html=1;fillStyle=solid;fillColor=#333333;fontColor=#FFFFFF;fontSize=16;fontStyle=1" vertex="1" parent="1">
          <mxGeometry x="1680" y="80" width="120" height="30" as="geometry" />
        </mxCell>
        <mxCell id="O7nyrzu7f34UhMlNXBu_-110" value="14" style="rounded=0;whiteSpace=wrap;html=1;fillStyle=solid;fillColor=#333333;fontColor=#FFFFFF;fontSize=16;fontStyle=1" vertex="1" parent="1">
          <mxGeometry x="1800" y="80" width="120" height="30" as="geometry" />
        </mxCell>
        <mxCell id="O7nyrzu7f34UhMlNXBu_-112" value="15" style="rounded=0;whiteSpace=wrap;html=1;fillStyle=solid;fillColor=#333333;fontColor=#FFFFFF;fontSize=16;fontStyle=1" vertex="1" parent="1">
          <mxGeometry x="1920" y="80" width="120" height="30" as="geometry" />
        </mxCell>
        <mxCell id="O7nyrzu7f34UhMlNXBu_-113" value="&lt;div style=&quot;font-size: 16px;&quot;&gt;&lt;span style=&quot;font-size: 16px;&quot;&gt;&lt;font style=&quot;font-size: 16px;&quot;&gt;INVALID&lt;/font&gt;&lt;/span&gt;&lt;/div&gt;" style="rounded=0;whiteSpace=wrap;html=1;fontColor=#FF0000;fontStyle=1;fontSize=16;fillStyle=solid;fillColor=#FFFFFF;" vertex="1" parent="1">
          <mxGeometry y="110" width="120" height="50" as="geometry" />
        </mxCell>
        <mxCell id="O7nyrzu7f34UhMlNXBu_-114" value="-1" style="rounded=0;whiteSpace=wrap;html=1;fontStyle=1;fontSize=16;labelBackgroundColor=none;fontColor=#FFFFFF;fillStyle=solid;fillColor=#333333;" vertex="1" parent="1">
          <mxGeometry y="80" width="120" height="30" as="geometry" />
        </mxCell>
        <mxCell id="O7nyrzu7f34UhMlNXBu_-115" value="&lt;span style=&quot;font-size: 16px;&quot;&gt;INVALID&lt;/span&gt;" style="rounded=0;whiteSpace=wrap;html=1;fontColor=#FF0000;fontStyle=1;fontSize=16;fillStyle=solid;fillColor=#FFFFFF;" vertex="1" parent="1">
          <mxGeometry x="2040" y="110" width="120" height="50" as="geometry" />
        </mxCell>
        <mxCell id="O7nyrzu7f34UhMlNXBu_-116" value="16" style="rounded=0;whiteSpace=wrap;html=1;fillStyle=solid;fillColor=#333333;fontColor=#FFFFFF;fontSize=16;fontStyle=1" vertex="1" parent="1">
          <mxGeometry x="2040" y="80" width="120" height="30" as="geometry" />
        </mxCell>
        <mxCell id="O7nyrzu7f34UhMlNXBu_-87" value="" style="rounded=0;whiteSpace=wrap;html=1;fillStyle=solid;fillColor=#FFFFFF;" vertex="1" parent="1">
          <mxGeometry x="480" y="110" width="120" height="50" as="geometry" />
        </mxCell>
        <mxCell id="O7nyrzu7f34UhMlNXBu_-89" value="" style="rounded=0;whiteSpace=wrap;html=1;fillStyle=solid;fillColor=#FFFFFF;" vertex="1" parent="1">
          <mxGeometry x="600" y="110" width="120" height="50" as="geometry" />
        </mxCell>
        <mxCell id="O7nyrzu7f34UhMlNXBu_-91" value="" style="rounded=0;whiteSpace=wrap;html=1;fillStyle=solid;fillColor=#FFFFFF;" vertex="1" parent="1">
          <mxGeometry x="720" y="110" width="120" height="50" as="geometry" />
        </mxCell>
        <mxCell id="O7nyrzu7f34UhMlNXBu_-93" value="22" style="rounded=0;whiteSpace=wrap;html=1;fontSize=16;fontStyle=1;fillStyle=solid;fillColor=#FFFFFF;" vertex="1" parent="1">
          <mxGeometry x="840" y="110" width="120" height="50" as="geometry" />
        </mxCell>
        <mxCell id="O7nyrzu7f34UhMlNXBu_-95" value="55" style="rounded=0;whiteSpace=wrap;html=1;fontSize=16;fontStyle=1;fillStyle=solid;fillColor=#FFFFFF;" vertex="1" parent="1">
          <mxGeometry x="960" y="110" width="120" height="50" as="geometry" />
        </mxCell>
        <mxCell id="O7nyrzu7f34UhMlNXBu_-97" value="78" style="rounded=0;whiteSpace=wrap;html=1;fontSize=16;fontStyle=1;fillStyle=solid;fillColor=#FFFFFF;" vertex="1" parent="1">
          <mxGeometry x="1080" y="110" width="120" height="50" as="geometry" />
        </mxCell>
        <mxCell id="O7nyrzu7f34UhMlNXBu_-99" value="93" style="rounded=0;whiteSpace=wrap;html=1;fontSize=16;fontStyle=1;fillStyle=solid;fillColor=#FFFFFF;" vertex="1" parent="1">
          <mxGeometry x="1200" y="110" width="120" height="50" as="geometry" />
        </mxCell>
        <mxCell id="O7nyrzu7f34UhMlNXBu_-127" value="&lt;div style=&quot;font-size: 16px;&quot;&gt;m_head&lt;/div&gt;" style="shape=flexArrow;endArrow=classic;html=1;rounded=0;fontSize=16;fontStyle=1;labelPosition=center;verticalLabelPosition=bottom;align=center;verticalAlign=top;horizontal=1;fillColor=#0000FF;labelBackgroundColor=none;" edge="1" parent="1">
          <mxGeometry x="-1" width="50" height="50" relative="1" as="geometry">
            <mxPoint x="779.29" y="240" as="sourcePoint" />
            <mxPoint x="779.29" y="170" as="targetPoint" />
            <mxPoint as="offset" />
          </mxGeometry>
        </mxCell>
        <mxCell id="O7nyrzu7f34UhMlNXBu_-128" value="&lt;div&gt;m_tail&lt;/div&gt;" style="shape=flexArrow;endArrow=classic;html=1;rounded=0;fontSize=16;fontStyle=1;labelPosition=center;verticalLabelPosition=bottom;align=center;verticalAlign=top;horizontal=1;fillColor=#00CC00;labelBackgroundColor=none;" edge="1" parent="1">
          <mxGeometry x="-1" width="50" height="50" relative="1" as="geometry">
            <mxPoint x="2099.29" y="240" as="sourcePoint" />
            <mxPoint x="2099.29" y="170" as="targetPoint" />
            <mxPoint as="offset" />
          </mxGeometry>
        </mxCell>
        <mxCell id="O7nyrzu7f34UhMlNXBu_-101" value="20" style="rounded=0;whiteSpace=wrap;html=1;fontSize=16;fontStyle=1;fillStyle=solid;fillColor=#FFFFFF;" vertex="1" parent="1">
          <mxGeometry x="1320" y="110" width="120" height="50" as="geometry" />
        </mxCell>
        <mxCell id="O7nyrzu7f34UhMlNXBu_-103" value="78" style="rounded=0;whiteSpace=wrap;html=1;fontSize=16;fontStyle=1;fillStyle=solid;fillColor=#FFFFFF;" vertex="1" parent="1">
          <mxGeometry x="1440" y="110" width="120" height="50" as="geometry" />
        </mxCell>
        <mxCell id="O7nyrzu7f34UhMlNXBu_-105" value="98" style="rounded=0;whiteSpace=wrap;html=1;fontSize=16;fontStyle=1;fillStyle=solid;fillColor=#FFFFFF;" vertex="1" parent="1">
          <mxGeometry x="1560" y="110" width="120" height="50" as="geometry" />
        </mxCell>
        <mxCell id="O7nyrzu7f34UhMlNXBu_-107" value="14" style="rounded=0;whiteSpace=wrap;html=1;fontSize=16;fontStyle=1;fillStyle=solid;fillColor=#FFFFFF;" vertex="1" parent="1">
          <mxGeometry x="1680" y="110" width="120" height="50" as="geometry" />
        </mxCell>
        <mxCell id="O7nyrzu7f34UhMlNXBu_-109" value="59" style="rounded=0;whiteSpace=wrap;html=1;fontSize=16;fontStyle=1;fillStyle=solid;fillColor=#FFFFFF;" vertex="1" parent="1">
          <mxGeometry x="1800" y="110" width="120" height="50" as="geometry" />
        </mxCell>
        <mxCell id="O7nyrzu7f34UhMlNXBu_-111" value="10" style="rounded=0;whiteSpace=wrap;html=1;fontStyle=1;fontSize=16;fillStyle=solid;fillColor=#FFFFFF;" vertex="1" parent="1">
          <mxGeometry x="1920" y="110" width="120" height="50" as="geometry" />
        </mxCell>
      </root>
    </mxGraphModel>
  </diagram>
  <diagram id="h78fM5L4C2ruJDTJX9jt" name="deslocamento_a_esquerda">
    <mxGraphModel dx="2380" dy="1380" grid="1" gridSize="10" guides="1" tooltips="1" connect="1" arrows="1" fold="1" page="1" pageScale="1" pageWidth="827" pageHeight="1169" math="0" shadow="0">
      <root>
        <mxCell id="0" />
        <mxCell id="1" parent="0" />
        <mxCell id="nQMA9BjcQZCk0fpRgTMm-1" value="" style="rounded=0;whiteSpace=wrap;html=1;fillStyle=solid;fillColor=#FFFFFF;" vertex="1" parent="1">
          <mxGeometry x="120" y="110" width="120" height="50" as="geometry" />
        </mxCell>
        <mxCell id="nQMA9BjcQZCk0fpRgTMm-2" value="0" style="rounded=0;whiteSpace=wrap;html=1;fontStyle=1;fontSize=16;labelBackgroundColor=none;fontColor=#FFFFFF;fillStyle=solid;fillColor=#333333;" vertex="1" parent="1">
          <mxGeometry x="120" y="80" width="120" height="30" as="geometry" />
        </mxCell>
        <mxCell id="nQMA9BjcQZCk0fpRgTMm-3" value="" style="rounded=0;whiteSpace=wrap;html=1;fillStyle=solid;fillColor=#FFFFFF;" vertex="1" parent="1">
          <mxGeometry x="240" y="110" width="120" height="50" as="geometry" />
        </mxCell>
        <mxCell id="nQMA9BjcQZCk0fpRgTMm-4" value="1" style="rounded=0;whiteSpace=wrap;html=1;fontStyle=1;fontSize=16;labelBackgroundColor=none;fontColor=#FFFFFF;fillStyle=solid;fillColor=#333333;" vertex="1" parent="1">
          <mxGeometry x="240" y="80" width="120" height="30" as="geometry" />
        </mxCell>
        <mxCell id="nQMA9BjcQZCk0fpRgTMm-5" value="" style="rounded=0;whiteSpace=wrap;html=1;fillStyle=solid;fillColor=#FFFFFF;" vertex="1" parent="1">
          <mxGeometry x="360" y="110" width="120" height="50" as="geometry" />
        </mxCell>
        <mxCell id="nQMA9BjcQZCk0fpRgTMm-6" value="2" style="rounded=0;whiteSpace=wrap;html=1;fontStyle=1;fontSize=16;labelBackgroundColor=none;fontColor=#FFFFFF;fillStyle=solid;fillColor=#333333;" vertex="1" parent="1">
          <mxGeometry x="360" y="80" width="120" height="30" as="geometry" />
        </mxCell>
        <mxCell id="nQMA9BjcQZCk0fpRgTMm-7" value="3" style="rounded=0;whiteSpace=wrap;html=1;fontStyle=1;fontSize=16;labelBackgroundColor=none;fontColor=#FFFFFF;fillStyle=solid;fillColor=#333333;" vertex="1" parent="1">
          <mxGeometry x="480" y="80" width="120" height="30" as="geometry" />
        </mxCell>
        <mxCell id="nQMA9BjcQZCk0fpRgTMm-8" value="4" style="rounded=0;whiteSpace=wrap;html=1;fontStyle=1;fontSize=16;labelBackgroundColor=none;fontColor=#FFFFFF;fillStyle=solid;fillColor=#333333;" vertex="1" parent="1">
          <mxGeometry x="600" y="80" width="120" height="30" as="geometry" />
        </mxCell>
        <mxCell id="nQMA9BjcQZCk0fpRgTMm-9" value="5" style="rounded=0;whiteSpace=wrap;html=1;fontStyle=1;fontSize=16;labelBackgroundColor=none;fontColor=#FFFFFF;fillStyle=solid;fillColor=#333333;" vertex="1" parent="1">
          <mxGeometry x="720" y="80" width="120" height="30" as="geometry" />
        </mxCell>
        <mxCell id="nQMA9BjcQZCk0fpRgTMm-10" value="6" style="rounded=0;whiteSpace=wrap;html=1;fontStyle=1;fontSize=16;labelBackgroundColor=none;fontColor=#FFFFFF;fillStyle=solid;fillColor=#333333;" vertex="1" parent="1">
          <mxGeometry x="840" y="80" width="120" height="30" as="geometry" />
        </mxCell>
        <mxCell id="nQMA9BjcQZCk0fpRgTMm-11" value="7" style="rounded=0;whiteSpace=wrap;html=1;fontStyle=1;fontSize=16;labelBackgroundColor=none;fontColor=#FFFFFF;fillStyle=solid;fillColor=#333333;" vertex="1" parent="1">
          <mxGeometry x="960" y="80" width="120" height="30" as="geometry" />
        </mxCell>
        <mxCell id="nQMA9BjcQZCk0fpRgTMm-12" value="8" style="rounded=0;whiteSpace=wrap;html=1;fillStyle=solid;fillColor=#333333;fontColor=#FFFFFF;fontSize=16;fontStyle=1" vertex="1" parent="1">
          <mxGeometry x="1080" y="80" width="120" height="30" as="geometry" />
        </mxCell>
        <mxCell id="nQMA9BjcQZCk0fpRgTMm-13" value="9" style="rounded=0;whiteSpace=wrap;html=1;fillStyle=solid;fillColor=#333333;fontColor=#FFFFFF;fontSize=16;fontStyle=1" vertex="1" parent="1">
          <mxGeometry x="1200" y="80" width="120" height="30" as="geometry" />
        </mxCell>
        <mxCell id="nQMA9BjcQZCk0fpRgTMm-14" value="10" style="rounded=0;whiteSpace=wrap;html=1;fillStyle=solid;fillColor=#333333;fontColor=#FFFFFF;fontSize=16;fontStyle=1" vertex="1" parent="1">
          <mxGeometry x="1320" y="80" width="120" height="30" as="geometry" />
        </mxCell>
        <mxCell id="nQMA9BjcQZCk0fpRgTMm-15" value="11" style="rounded=0;whiteSpace=wrap;html=1;fillStyle=solid;fillColor=#333333;fontColor=#FFFFFF;fontSize=16;fontStyle=1" vertex="1" parent="1">
          <mxGeometry x="1440" y="80" width="120" height="30" as="geometry" />
        </mxCell>
        <mxCell id="nQMA9BjcQZCk0fpRgTMm-16" value="12" style="rounded=0;whiteSpace=wrap;html=1;fillStyle=solid;fillColor=#333333;fontColor=#FFFFFF;fontSize=16;fontStyle=1" vertex="1" parent="1">
          <mxGeometry x="1560" y="80" width="120" height="30" as="geometry" />
        </mxCell>
        <mxCell id="nQMA9BjcQZCk0fpRgTMm-17" value="13" style="rounded=0;whiteSpace=wrap;html=1;fillStyle=solid;fillColor=#333333;fontColor=#FFFFFF;fontSize=16;fontStyle=1" vertex="1" parent="1">
          <mxGeometry x="1680" y="80" width="120" height="30" as="geometry" />
        </mxCell>
        <mxCell id="nQMA9BjcQZCk0fpRgTMm-18" value="14" style="rounded=0;whiteSpace=wrap;html=1;fillStyle=solid;fillColor=#333333;fontColor=#FFFFFF;fontSize=16;fontStyle=1" vertex="1" parent="1">
          <mxGeometry x="1800" y="80" width="120" height="30" as="geometry" />
        </mxCell>
        <mxCell id="nQMA9BjcQZCk0fpRgTMm-19" value="15" style="rounded=0;whiteSpace=wrap;html=1;fillStyle=solid;fillColor=#333333;fontColor=#FFFFFF;fontSize=16;fontStyle=1" vertex="1" parent="1">
          <mxGeometry x="1920" y="80" width="120" height="30" as="geometry" />
        </mxCell>
        <mxCell id="nQMA9BjcQZCk0fpRgTMm-20" value="&lt;div style=&quot;font-size: 16px;&quot;&gt;&lt;span style=&quot;font-size: 16px;&quot;&gt;&lt;font style=&quot;font-size: 16px;&quot;&gt;INVALID&lt;/font&gt;&lt;/span&gt;&lt;/div&gt;" style="rounded=0;whiteSpace=wrap;html=1;fontColor=#FF0000;fontStyle=1;fontSize=16;fillStyle=solid;fillColor=#FFFFFF;" vertex="1" parent="1">
          <mxGeometry y="110" width="120" height="50" as="geometry" />
        </mxCell>
        <mxCell id="nQMA9BjcQZCk0fpRgTMm-21" value="-1" style="rounded=0;whiteSpace=wrap;html=1;fontStyle=1;fontSize=16;labelBackgroundColor=none;fontColor=#FFFFFF;fillStyle=solid;fillColor=#333333;" vertex="1" parent="1">
          <mxGeometry y="80" width="120" height="30" as="geometry" />
        </mxCell>
        <mxCell id="nQMA9BjcQZCk0fpRgTMm-22" value="&lt;span style=&quot;font-size: 16px;&quot;&gt;INVALID&lt;/span&gt;" style="rounded=0;whiteSpace=wrap;html=1;fontColor=#FF0000;fontStyle=1;fontSize=16;fillStyle=solid;fillColor=#FFFFFF;" vertex="1" parent="1">
          <mxGeometry x="2040" y="110" width="120" height="50" as="geometry" />
        </mxCell>
        <mxCell id="nQMA9BjcQZCk0fpRgTMm-23" value="16" style="rounded=0;whiteSpace=wrap;html=1;fillStyle=solid;fillColor=#333333;fontColor=#FFFFFF;fontSize=16;fontStyle=1" vertex="1" parent="1">
          <mxGeometry x="2040" y="80" width="120" height="30" as="geometry" />
        </mxCell>
        <mxCell id="nQMA9BjcQZCk0fpRgTMm-31" value="&lt;div style=&quot;font-size: 16px;&quot;&gt;m_head&lt;/div&gt;" style="shape=flexArrow;endArrow=classic;html=1;rounded=0;fontSize=16;fontStyle=1;labelPosition=center;verticalLabelPosition=bottom;align=center;verticalAlign=top;horizontal=1;fillColor=#0000FF;labelBackgroundColor=none;" edge="1" parent="1">
          <mxGeometry x="-1" width="50" height="50" relative="1" as="geometry">
            <mxPoint x="418.99999999999994" y="240" as="sourcePoint" />
            <mxPoint x="418.99999999999994" y="170" as="targetPoint" />
            <mxPoint as="offset" />
          </mxGeometry>
        </mxCell>
        <mxCell id="nQMA9BjcQZCk0fpRgTMm-32" value="&lt;div&gt;m_tail&lt;/div&gt;" style="shape=flexArrow;endArrow=classic;html=1;rounded=0;fontSize=16;fontStyle=1;labelPosition=center;verticalLabelPosition=bottom;align=center;verticalAlign=top;horizontal=1;fillColor=#00CC00;labelBackgroundColor=none;" edge="1" parent="1">
          <mxGeometry x="-1" width="50" height="50" relative="1" as="geometry">
            <mxPoint x="1739" y="240" as="sourcePoint" />
            <mxPoint x="1739" y="170" as="targetPoint" />
            <mxPoint as="offset" />
          </mxGeometry>
        </mxCell>
        <mxCell id="nQMA9BjcQZCk0fpRgTMm-39" value="" style="group" vertex="1" connectable="0" parent="1">
          <mxGeometry x="480" y="110" width="1200" height="50" as="geometry" />
        </mxCell>
        <mxCell id="nQMA9BjcQZCk0fpRgTMm-27" value="22" style="rounded=0;whiteSpace=wrap;html=1;fontSize=16;fontStyle=1;fillStyle=solid;fillColor=#FFFFFF;" vertex="1" parent="nQMA9BjcQZCk0fpRgTMm-39">
          <mxGeometry width="120" height="50" as="geometry" />
        </mxCell>
        <mxCell id="nQMA9BjcQZCk0fpRgTMm-28" value="55" style="rounded=0;whiteSpace=wrap;html=1;fontSize=16;fontStyle=1;fillStyle=solid;fillColor=#FFFFFF;" vertex="1" parent="nQMA9BjcQZCk0fpRgTMm-39">
          <mxGeometry x="120" width="120" height="50" as="geometry" />
        </mxCell>
        <mxCell id="nQMA9BjcQZCk0fpRgTMm-29" value="78" style="rounded=0;whiteSpace=wrap;html=1;fontSize=16;fontStyle=1;fillStyle=solid;fillColor=#FFFFFF;" vertex="1" parent="nQMA9BjcQZCk0fpRgTMm-39">
          <mxGeometry x="240" width="120" height="50" as="geometry" />
        </mxCell>
        <mxCell id="nQMA9BjcQZCk0fpRgTMm-30" value="93" style="rounded=0;whiteSpace=wrap;html=1;fontSize=16;fontStyle=1;fillStyle=solid;fillColor=#FFFFFF;" vertex="1" parent="nQMA9BjcQZCk0fpRgTMm-39">
          <mxGeometry x="360" width="120" height="50" as="geometry" />
        </mxCell>
        <mxCell id="nQMA9BjcQZCk0fpRgTMm-33" value="20" style="rounded=0;whiteSpace=wrap;html=1;fontSize=16;fontStyle=1;fillStyle=solid;fillColor=#FFFFFF;" vertex="1" parent="nQMA9BjcQZCk0fpRgTMm-39">
          <mxGeometry x="480" width="120" height="50" as="geometry" />
        </mxCell>
        <mxCell id="nQMA9BjcQZCk0fpRgTMm-34" value="78" style="rounded=0;whiteSpace=wrap;html=1;fontSize=16;fontStyle=1;fillStyle=solid;fillColor=#FFFFFF;" vertex="1" parent="nQMA9BjcQZCk0fpRgTMm-39">
          <mxGeometry x="600" width="120" height="50" as="geometry" />
        </mxCell>
        <mxCell id="nQMA9BjcQZCk0fpRgTMm-35" value="98" style="rounded=0;whiteSpace=wrap;html=1;fontSize=16;fontStyle=1;fillStyle=solid;fillColor=#FFFFFF;" vertex="1" parent="nQMA9BjcQZCk0fpRgTMm-39">
          <mxGeometry x="720" width="120" height="50" as="geometry" />
        </mxCell>
        <mxCell id="nQMA9BjcQZCk0fpRgTMm-36" value="14" style="rounded=0;whiteSpace=wrap;html=1;fontSize=16;fontStyle=1;fillStyle=solid;fillColor=#FFFFFF;" vertex="1" parent="nQMA9BjcQZCk0fpRgTMm-39">
          <mxGeometry x="840" width="120" height="50" as="geometry" />
        </mxCell>
        <mxCell id="nQMA9BjcQZCk0fpRgTMm-37" value="59" style="rounded=0;whiteSpace=wrap;html=1;fontSize=16;fontStyle=1;fillStyle=solid;fillColor=#FFFFFF;" vertex="1" parent="nQMA9BjcQZCk0fpRgTMm-39">
          <mxGeometry x="960" width="120" height="50" as="geometry" />
        </mxCell>
        <mxCell id="nQMA9BjcQZCk0fpRgTMm-38" value="10" style="rounded=0;whiteSpace=wrap;html=1;fontStyle=1;fontSize=16;fillStyle=solid;fillColor=#FFFFFF;" vertex="1" parent="nQMA9BjcQZCk0fpRgTMm-39">
          <mxGeometry x="1080" width="120" height="50" as="geometry" />
        </mxCell>
        <mxCell id="nQMA9BjcQZCk0fpRgTMm-40" value="" style="group" vertex="1" connectable="0" parent="1">
          <mxGeometry x="1680" y="110" width="360" height="50" as="geometry" />
        </mxCell>
        <mxCell id="nQMA9BjcQZCk0fpRgTMm-24" value="" style="rounded=0;whiteSpace=wrap;html=1;fillStyle=solid;fillColor=#FFFFFF;" vertex="1" parent="nQMA9BjcQZCk0fpRgTMm-40">
          <mxGeometry width="120" height="50" as="geometry" />
        </mxCell>
        <mxCell id="nQMA9BjcQZCk0fpRgTMm-25" value="" style="rounded=0;whiteSpace=wrap;html=1;fillStyle=solid;fillColor=#FFFFFF;" vertex="1" parent="nQMA9BjcQZCk0fpRgTMm-40">
          <mxGeometry x="120" width="120" height="50" as="geometry" />
        </mxCell>
        <mxCell id="nQMA9BjcQZCk0fpRgTMm-26" value="" style="rounded=0;whiteSpace=wrap;html=1;fillStyle=solid;fillColor=#FFFFFF;" vertex="1" parent="nQMA9BjcQZCk0fpRgTMm-40">
          <mxGeometry x="240" width="120" height="50" as="geometry" />
        </mxCell>
      </root>
    </mxGraphModel>
  </diagram>
  <diagram name="remove" id="L0WqrCbMLCLRnkMe-05M">
    <mxGraphModel dx="1515" dy="878" grid="1" gridSize="10" guides="1" tooltips="1" connect="1" arrows="1" fold="1" page="1" pageScale="1" pageWidth="827" pageHeight="1169" math="0" shadow="0">
      <root>
        <mxCell id="EHxC74kuZB26BmJeHmNT-0" />
        <mxCell id="EHxC74kuZB26BmJeHmNT-1" parent="EHxC74kuZB26BmJeHmNT-0" />
        <mxCell id="EHxC74kuZB26BmJeHmNT-2" value="" style="rounded=0;whiteSpace=wrap;html=1;fillStyle=solid;fillColor=#FFFFFF;" vertex="1" parent="EHxC74kuZB26BmJeHmNT-1">
          <mxGeometry x="120" y="30" width="120" height="50" as="geometry" />
        </mxCell>
        <mxCell id="EHxC74kuZB26BmJeHmNT-3" value="0" style="rounded=0;whiteSpace=wrap;html=1;fontStyle=1;fontSize=16;labelBackgroundColor=none;fontColor=#FFFFFF;fillStyle=solid;fillColor=#333333;" vertex="1" parent="EHxC74kuZB26BmJeHmNT-1">
          <mxGeometry x="120" width="120" height="30" as="geometry" />
        </mxCell>
        <mxCell id="EHxC74kuZB26BmJeHmNT-4" value="" style="rounded=0;whiteSpace=wrap;html=1;fillStyle=solid;fillColor=#FFFFFF;" vertex="1" parent="EHxC74kuZB26BmJeHmNT-1">
          <mxGeometry x="240" y="30" width="120" height="50" as="geometry" />
        </mxCell>
        <mxCell id="EHxC74kuZB26BmJeHmNT-5" value="1" style="rounded=0;whiteSpace=wrap;html=1;fontStyle=1;fontSize=16;labelBackgroundColor=none;fontColor=#FFFFFF;fillStyle=solid;fillColor=#333333;" vertex="1" parent="EHxC74kuZB26BmJeHmNT-1">
          <mxGeometry x="240" width="120" height="30" as="geometry" />
        </mxCell>
        <mxCell id="EHxC74kuZB26BmJeHmNT-6" value="" style="rounded=0;whiteSpace=wrap;html=1;fillStyle=solid;fillColor=#FFFFFF;" vertex="1" parent="EHxC74kuZB26BmJeHmNT-1">
          <mxGeometry x="360" y="30" width="120" height="50" as="geometry" />
        </mxCell>
        <mxCell id="EHxC74kuZB26BmJeHmNT-7" value="2" style="rounded=0;whiteSpace=wrap;html=1;fontStyle=1;fontSize=16;labelBackgroundColor=none;fontColor=#FFFFFF;fillStyle=solid;fillColor=#333333;" vertex="1" parent="EHxC74kuZB26BmJeHmNT-1">
          <mxGeometry x="360" width="120" height="30" as="geometry" />
        </mxCell>
        <mxCell id="EHxC74kuZB26BmJeHmNT-8" value="3" style="rounded=0;whiteSpace=wrap;html=1;fontStyle=1;fontSize=16;labelBackgroundColor=none;fontColor=#FFFFFF;fillStyle=solid;fillColor=#333333;" vertex="1" parent="EHxC74kuZB26BmJeHmNT-1">
          <mxGeometry x="480" width="120" height="30" as="geometry" />
        </mxCell>
        <mxCell id="EHxC74kuZB26BmJeHmNT-9" value="4" style="rounded=0;whiteSpace=wrap;html=1;fontStyle=1;fontSize=16;labelBackgroundColor=none;fontColor=#FFFFFF;fillStyle=solid;fillColor=#333333;" vertex="1" parent="EHxC74kuZB26BmJeHmNT-1">
          <mxGeometry x="600" width="120" height="30" as="geometry" />
        </mxCell>
        <mxCell id="EHxC74kuZB26BmJeHmNT-10" value="5" style="rounded=0;whiteSpace=wrap;html=1;fontStyle=1;fontSize=16;labelBackgroundColor=none;fontColor=#FFFFFF;fillStyle=solid;fillColor=#333333;" vertex="1" parent="EHxC74kuZB26BmJeHmNT-1">
          <mxGeometry x="720" width="120" height="30" as="geometry" />
        </mxCell>
        <mxCell id="EHxC74kuZB26BmJeHmNT-11" value="6" style="rounded=0;whiteSpace=wrap;html=1;fontStyle=1;fontSize=16;labelBackgroundColor=none;fontColor=#FFFFFF;fillStyle=solid;fillColor=#333333;" vertex="1" parent="EHxC74kuZB26BmJeHmNT-1">
          <mxGeometry x="840" width="120" height="30" as="geometry" />
        </mxCell>
        <mxCell id="EHxC74kuZB26BmJeHmNT-12" value="7" style="rounded=0;whiteSpace=wrap;html=1;fontStyle=1;fontSize=16;labelBackgroundColor=none;fontColor=#FFFFFF;fillStyle=solid;fillColor=#333333;" vertex="1" parent="EHxC74kuZB26BmJeHmNT-1">
          <mxGeometry x="960" width="120" height="30" as="geometry" />
        </mxCell>
        <mxCell id="EHxC74kuZB26BmJeHmNT-13" value="8" style="rounded=0;whiteSpace=wrap;html=1;fillStyle=solid;fillColor=#333333;fontColor=#FFFFFF;fontSize=16;fontStyle=1" vertex="1" parent="EHxC74kuZB26BmJeHmNT-1">
          <mxGeometry x="1080" width="120" height="30" as="geometry" />
        </mxCell>
        <mxCell id="EHxC74kuZB26BmJeHmNT-14" value="9" style="rounded=0;whiteSpace=wrap;html=1;fillStyle=solid;fillColor=#333333;fontColor=#FFFFFF;fontSize=16;fontStyle=1" vertex="1" parent="EHxC74kuZB26BmJeHmNT-1">
          <mxGeometry x="1200" width="120" height="30" as="geometry" />
        </mxCell>
        <mxCell id="EHxC74kuZB26BmJeHmNT-15" value="10" style="rounded=0;whiteSpace=wrap;html=1;fillStyle=solid;fillColor=#333333;fontColor=#FFFFFF;fontSize=16;fontStyle=1" vertex="1" parent="EHxC74kuZB26BmJeHmNT-1">
          <mxGeometry x="1320" width="120" height="30" as="geometry" />
        </mxCell>
        <mxCell id="EHxC74kuZB26BmJeHmNT-16" value="11" style="rounded=0;whiteSpace=wrap;html=1;fillStyle=solid;fillColor=#333333;fontColor=#FFFFFF;fontSize=16;fontStyle=1" vertex="1" parent="EHxC74kuZB26BmJeHmNT-1">
          <mxGeometry x="1440" width="120" height="30" as="geometry" />
        </mxCell>
        <mxCell id="EHxC74kuZB26BmJeHmNT-17" value="12" style="rounded=0;whiteSpace=wrap;html=1;fillStyle=solid;fillColor=#333333;fontColor=#FFFFFF;fontSize=16;fontStyle=1" vertex="1" parent="EHxC74kuZB26BmJeHmNT-1">
          <mxGeometry x="1560" width="120" height="30" as="geometry" />
        </mxCell>
        <mxCell id="EHxC74kuZB26BmJeHmNT-18" value="13" style="rounded=0;whiteSpace=wrap;html=1;fillStyle=solid;fillColor=#333333;fontColor=#FFFFFF;fontSize=16;fontStyle=1" vertex="1" parent="EHxC74kuZB26BmJeHmNT-1">
          <mxGeometry x="1680" width="120" height="30" as="geometry" />
        </mxCell>
        <mxCell id="EHxC74kuZB26BmJeHmNT-19" value="14" style="rounded=0;whiteSpace=wrap;html=1;fillStyle=solid;fillColor=#333333;fontColor=#FFFFFF;fontSize=16;fontStyle=1" vertex="1" parent="EHxC74kuZB26BmJeHmNT-1">
          <mxGeometry x="1800" width="120" height="30" as="geometry" />
        </mxCell>
        <mxCell id="EHxC74kuZB26BmJeHmNT-20" value="15" style="rounded=0;whiteSpace=wrap;html=1;fillStyle=solid;fillColor=#333333;fontColor=#FFFFFF;fontSize=16;fontStyle=1" vertex="1" parent="EHxC74kuZB26BmJeHmNT-1">
          <mxGeometry x="1920" width="120" height="30" as="geometry" />
        </mxCell>
        <mxCell id="EHxC74kuZB26BmJeHmNT-21" value="&lt;div style=&quot;font-size: 16px;&quot;&gt;&lt;span style=&quot;font-size: 16px;&quot;&gt;&lt;font style=&quot;font-size: 16px;&quot;&gt;INVALID&lt;/font&gt;&lt;/span&gt;&lt;/div&gt;" style="rounded=0;whiteSpace=wrap;html=1;fontColor=#FF0000;fontStyle=1;fontSize=16;fillStyle=solid;fillColor=#FFFFFF;" vertex="1" parent="EHxC74kuZB26BmJeHmNT-1">
          <mxGeometry y="30" width="120" height="50" as="geometry" />
        </mxCell>
        <mxCell id="EHxC74kuZB26BmJeHmNT-22" value="-1" style="rounded=0;whiteSpace=wrap;html=1;fontStyle=1;fontSize=16;labelBackgroundColor=none;fontColor=#FFFFFF;fillStyle=solid;fillColor=#333333;" vertex="1" parent="EHxC74kuZB26BmJeHmNT-1">
          <mxGeometry width="120" height="30" as="geometry" />
        </mxCell>
        <mxCell id="EHxC74kuZB26BmJeHmNT-23" value="&lt;span style=&quot;font-size: 16px;&quot;&gt;INVALID&lt;/span&gt;" style="rounded=0;whiteSpace=wrap;html=1;fontColor=#FF0000;fontStyle=1;fontSize=16;fillStyle=solid;fillColor=#FFFFFF;" vertex="1" parent="EHxC74kuZB26BmJeHmNT-1">
          <mxGeometry x="2040" y="30" width="120" height="50" as="geometry" />
        </mxCell>
        <mxCell id="EHxC74kuZB26BmJeHmNT-24" value="16" style="rounded=0;whiteSpace=wrap;html=1;fillStyle=solid;fillColor=#333333;fontColor=#FFFFFF;fontSize=16;fontStyle=1" vertex="1" parent="EHxC74kuZB26BmJeHmNT-1">
          <mxGeometry x="2040" width="120" height="30" as="geometry" />
        </mxCell>
        <mxCell id="EHxC74kuZB26BmJeHmNT-25" value="" style="rounded=0;whiteSpace=wrap;html=1;fillStyle=solid;fillColor=#FFFFFF;" vertex="1" parent="EHxC74kuZB26BmJeHmNT-1">
          <mxGeometry x="480" y="30" width="120" height="50" as="geometry" />
        </mxCell>
        <mxCell id="EHxC74kuZB26BmJeHmNT-26" value="" style="rounded=0;whiteSpace=wrap;html=1;fillStyle=solid;fillColor=#FFFFFF;" vertex="1" parent="EHxC74kuZB26BmJeHmNT-1">
          <mxGeometry x="600" y="30" width="120" height="50" as="geometry" />
        </mxCell>
        <mxCell id="EHxC74kuZB26BmJeHmNT-27" value="" style="rounded=0;whiteSpace=wrap;html=1;fillStyle=solid;fillColor=#FFFFFF;" vertex="1" parent="EHxC74kuZB26BmJeHmNT-1">
          <mxGeometry x="720" y="30" width="120" height="50" as="geometry" />
        </mxCell>
        <mxCell id="EHxC74kuZB26BmJeHmNT-28" value="" style="rounded=0;whiteSpace=wrap;fontSize=16;fontStyle=1;fillStyle=solid;fillColor=#FFFFFF;" vertex="1" parent="EHxC74kuZB26BmJeHmNT-1">
          <mxGeometry x="840" y="30" width="120" height="50" as="geometry" />
        </mxCell>
        <mxCell id="EHxC74kuZB26BmJeHmNT-29" value="55" style="rounded=0;whiteSpace=wrap;fontSize=16;fontStyle=1;fillStyle=solid;fillColor=#FFFFFF;" vertex="1" parent="EHxC74kuZB26BmJeHmNT-1">
          <mxGeometry x="960" y="30" width="120" height="50" as="geometry" />
        </mxCell>
        <mxCell id="EHxC74kuZB26BmJeHmNT-31" value="93" style="rounded=0;whiteSpace=wrap;fontSize=16;fontStyle=1;fillStyle=solid;fillColor=#FFFFFF;" vertex="1" parent="EHxC74kuZB26BmJeHmNT-1">
          <mxGeometry x="1080" y="30" width="120" height="50" as="geometry" />
        </mxCell>
        <mxCell id="EHxC74kuZB26BmJeHmNT-32" value="&lt;div style=&quot;font-size: 16px;&quot;&gt;m_head&lt;/div&gt;" style="shape=flexArrow;endArrow=classic;html=1;rounded=0;fontSize=16;fontStyle=1;labelPosition=center;verticalLabelPosition=bottom;align=center;verticalAlign=top;horizontal=1;fillColor=#0000FF;labelBackgroundColor=none;" edge="1" parent="EHxC74kuZB26BmJeHmNT-1">
          <mxGeometry x="-1" width="50" height="50" relative="1" as="geometry">
            <mxPoint x="899.29" y="160" as="sourcePoint" />
            <mxPoint x="899.29" y="90" as="targetPoint" />
            <mxPoint as="offset" />
          </mxGeometry>
        </mxCell>
        <mxCell id="EHxC74kuZB26BmJeHmNT-33" value="&lt;div&gt;m_tail&lt;/div&gt;" style="shape=flexArrow;endArrow=classic;html=1;rounded=0;fontSize=16;fontStyle=1;labelPosition=center;verticalLabelPosition=bottom;align=center;verticalAlign=top;horizontal=1;fillColor=#00CC00;labelBackgroundColor=none;" edge="1" parent="EHxC74kuZB26BmJeHmNT-1">
          <mxGeometry x="-1" width="50" height="50" relative="1" as="geometry">
            <mxPoint x="1379.09" y="160" as="sourcePoint" />
            <mxPoint x="1379.09" y="90" as="targetPoint" />
            <mxPoint as="offset" />
          </mxGeometry>
        </mxCell>
        <mxCell id="EHxC74kuZB26BmJeHmNT-34" value="20" style="rounded=0;whiteSpace=wrap;fontSize=16;fontStyle=1;fillStyle=solid;fillColor=#FFFFFF;" vertex="1" parent="EHxC74kuZB26BmJeHmNT-1">
          <mxGeometry x="1200" y="30" width="120" height="50" as="geometry" />
        </mxCell>
        <mxCell id="EHxC74kuZB26BmJeHmNT-35" value="" style="rounded=0;whiteSpace=wrap;fontSize=16;fontStyle=1;fillStyle=solid;fillColor=#FFFFFF;" vertex="1" parent="EHxC74kuZB26BmJeHmNT-1">
          <mxGeometry x="1440" y="30" width="120" height="50" as="geometry" />
        </mxCell>
        <mxCell id="EHxC74kuZB26BmJeHmNT-36" value="" style="rounded=0;whiteSpace=wrap;fontSize=16;fontStyle=1;fillStyle=solid;fillColor=#FFFFFF;" vertex="1" parent="EHxC74kuZB26BmJeHmNT-1">
          <mxGeometry x="1560" y="30" width="120" height="50" as="geometry" />
        </mxCell>
        <mxCell id="EHxC74kuZB26BmJeHmNT-37" value="" style="rounded=0;whiteSpace=wrap;fontSize=16;fontStyle=1;fillStyle=solid;fillColor=#FFFFFF;" vertex="1" parent="EHxC74kuZB26BmJeHmNT-1">
          <mxGeometry x="1680" y="30" width="120" height="50" as="geometry" />
        </mxCell>
        <mxCell id="EHxC74kuZB26BmJeHmNT-38" value="" style="rounded=0;whiteSpace=wrap;fontSize=16;fontStyle=1;fillStyle=solid;fillColor=#FFFFFF;" vertex="1" parent="EHxC74kuZB26BmJeHmNT-1">
          <mxGeometry x="1800" y="30" width="120" height="50" as="geometry" />
        </mxCell>
        <mxCell id="EHxC74kuZB26BmJeHmNT-39" value="" style="rounded=0;whiteSpace=wrap;fontStyle=1;fontSize=16;fillStyle=solid;fillColor=#FFFFFF;" vertex="1" parent="EHxC74kuZB26BmJeHmNT-1">
          <mxGeometry x="1920" y="30" width="120" height="50" as="geometry" />
        </mxCell>
        <mxCell id="t7z2n1A85gh8rn8u5gja-0" value="" style="rounded=0;whiteSpace=wrap;fontSize=16;fontStyle=1;fillStyle=solid;fillColor=#FFFFFF;" vertex="1" parent="EHxC74kuZB26BmJeHmNT-1">
          <mxGeometry x="1320" y="30" width="120" height="50" as="geometry" />
        </mxCell>
      </root>
    </mxGraphModel>
  </diagram>
</mxfile>
